 http://uppix.net/c/1/b/4ee0cdc160f486b1ff59d2b8a361b.jpg


Superman Unbound 2013 HDRip x264 AC3-FooKaS

Format : Matroska
File size : 1.40 GiB
Duration : 1h 15mn
Overall bit rate : 2 662 Kbps
Encoded date : UTC 2013-04-23 17:14:52
Writing application : mkvmerge v6.1.0 ('Old Devil') built on Mar 2 2013 14:32:37
Writing library : libebml v1.3.0 + libmatroska v1.4.0

Video
Format : AVC
Bit rate : 2 275 Kbps
Width : 720 pixels
Height : 400 pixels
Display aspect ratio : 16:9
Frame rate : 23.976 fps
Color space : YUV
Chroma subsampling : 4:2:0
Bit depth : 8 bits
Scan type : Progressive
Bits/(Pixel*Frame) : 0.329
Stream size : 1.17 GiB (84%)
Writing library : x264 core 130 r2273 b3065e6
Language : English


Audio
ID : 2
Format : AC-3
Format/Info : Audio Coding 3
Mode extension : CM (complete main)
Codec ID : A_AC3
Duration : 1h 15mn
Bit rate mode : Constant
Bit rate : 384 Kbps
Channel(s) : 6 channels
Channel positions : Front: L C R, Side: L R, LFE
Sampling rate : 48.0 KHz
Bit depth : 16 bits
Compression mode : Lossy
Stream size : 207 MiB
Language : English

Subtitles............: English | Spanish |  French | Portuguese


SCREENSHOTS:
 
http://uppix.net/e/8/0/e9ccd79941463ea0aa32d45edb330.png
 
http://uppix.net/7/0/a/4ff604f83938930ab7451430d2373.png
 
http://uppix.net/8/e/4/8307b3ec630198f9c27d3a8ebf02b.png
